#!OML:ASF F:\VICON\USERDATA\INSTALL\rory3\rory3.ASF
:FULLY-SPECIFIED
:DEGREES
2482
root -2.59853 18.2562 6.40348 -1.81066 -15.5939 8.75262
lowerback 8.10536 1.8094 -1.88375
upperback 2.85596 2.22161 -1.05022
thorax -1.61736 1.10112 -0.232702
lowerneck -9.65171 -8.46795 -8.11696
upperneck 2.11024 -11.0677 12.4688
head 3.3695 -5.14666 4.37864
rclavicle -3.26007e-014 1.43125e-014
rhumerus 19.45 3.84788 -61.9591
rradius 70.455
rwrist 27.2719
rhand -39.0959 -1.0667
rfingers 7.12502
rthumb -12.0961 -30.6971
lclavicle -3.26007e-014 1.43125e-014
lhumerus -30.0925 -7.02115 70.8576
lradius 34.75
lwrist -9.40776
lhand -26.2959 19.029
lfingers 7.12502
lthumb 0.259914 49.0086
rfemur -18.0231 20.7766 5.16461
rtibia 39.9211
rfoot -21.7103 -12.606
rtoes -8.94608
lfemur -4.0787 -3.48138 -15.0455
ltibia 28.216
lfoot -10.1232 9.84734
ltoes -26.2854
2483
root -2.62744 18.2578 6.38908 -1.84311 -15.6266 8.83887
lowerback 8.28685 1.81891 -1.89097
upperback 2.76958 2.22684 -1.05139
thorax -1.80709 1.10497 -0.238331
lowerneck -9.54695 -8.48574 -8.19411
upperneck 2.12823 -11.0848 12.3917
head 3.35859 -5.16175 4.36934
rclavicle -2.96189e-014 2.06736e-014
rhumerus 19.3548 5.5873 -62.0224
rradius 70.4287
rwrist 26.9954
rhand -39.5512 -0.994052
rfingers 7.12502
rthumb -12.5351 -30.598
lclavicle -2.96189e-014 2.06736e-014
lhumerus -29.7547 -7.44517 70.9189
lradius 34.2143
lwrist -9.61901
lhand -25.8502 19.276
lfingers 7.12502
lthumb 0.690452 49.2546
rfemur -18.0704 20.7792 5.19224
rtibia 39.9765
rfoot -21.6572 -12.6048
rtoes -8.9304
lfemur -4.32334 -3.18506 -14.9282
ltibia 28.5879
lfoot -9.498 9.4312
ltoes -27.635
2484
root -2.65325 18.2633 6.38205 -1.9318 -15.7333 9.02234
lowerback 8.35376 1.83501 -1.92291
upperback 2.76879 2.24169 -1.12419
thorax -1.84328 1.11259 -0.299215
lowerneck -9.56504 -8.50478 -8.23991
upperneck 2.16099 -11.1111 12.4475
head 3.38025 -5.1718 4.38981
rclavicle -7.55382e-015 1.11319e-014
rhumerus 19.4874 7.2971 -62.0228
rradius 70.4325
rwrist 27.0075
rhand -39.7959 -0.922843
rfingers 7.12502
rthumb -12.771 -30.5122
lclavicle -7.55382e-015 1.11319e-014
lhumerus -29.2851 -7.62772 70.8511
lradius 33.71
lwrist -9.7075
lhand -24.832 19.5251
lfingers 7.12502
lthumb 1.67381 49.4983
rfemur -18.0792 20.7901 5.1072
rtibia 40.0125
rfoot -21.5925 -12.5749
rtoes -8.92647
lfemur -4.48765 -2.99945 -14.969
ltibia 28.9481
lfoot -8.9573 9.16782
ltoes -28.2603
2485
root -2.68178 18.2745 6.38246 -2.08242 -15.9206 9.33491
lowerback 8.30462 1.89641 -2.12232
upperback 2.81718 2.30692 -1.22079
thorax -1.77039 1.14429 -0.290892
lowerneck -9.58456 -8.52495 -8.20768
upperneck 2.17164 -11.142 12.4473
head 3.38799 -5.1858 4.38102
rclavicle -2.18663e-015 -2.22639e-014
rhumerus 19.8111 8.94468 -61.9373
rradius 70.517
rwrist 26.9732
rhand -39.8289 -0.854756
rfingers 7.12502
rthumb -12.8029 -30.4422
lclavicle -2.18663e-015 -2.22639e-014
lhumerus -28.7579 -7.61657 70.7226
lradius 33.2568
lwrist -9.90943
lhand -24.3654 19.3733
lfingers 7.12502
lthumb 2.12443 49.3424
rfemur -18.0583 20.8225 4.88446
rtibia 40.0128
rfoot -21.5498 -12.4755
rtoes -9.01867
lfemur -4.58538 -2.89828 -15.1657
ltibia 29.2864
lfoot -8.56698 9.02067
ltoes -28.3273
2486
root -2.71242 18.2834 6.37926 -2.20083 -16.1342 9.4926
lowerback 8.30841 1.95783 -2.25293
upperback 2.8171 2.37707 -1.24338
thorax -1.77751 1.179 -0.248219
lowerneck -9.43459 -8.53478 -8.19235
upperneck 2.09148 -11.1561 12.4089
head 3.33764 -5.20106 4.37272
rclavicle 9.93923e-016 7.95139e-015
rhumerus 20.1674 10.3408 -62.1649
rradius 70.4871
rwrist 27.1392
rhand -39.8151 -0.474695
rfingers 7.12502
rthumb -12.7895 -30.0629
lclavicle 9.93923e-016 7.95139e-015
lhumerus -28.3212 -7.65129 70.6346
lradius 32.8939
lwrist -10.08
lhand -24.2743 19.6289
lfingers 7.12502
lthumb 2.2124 49.5972
rfemur -18.0345 20.9339 4.84375
rtibia 39.9857
rfoot -21.5316 -12.343
rtoes -9.04671
lfemur -4.68113 -2.76545 -15.1668
ltibia 29.5886
lfoot -8.15905 8.82139
ltoes -28.4142
